<?xml version="1.0" standalone="no"?>
<svg xmlns:xlink="http://www.w3.org/1999/xlink" id="wave" style="transform:rotate(180deg); transition: 0.3s" viewBox="0 0 1440 490" version="1.1" xmlns="http://www.w3.org/2000/svg"><defs><linearGradient id="sw-gradient-0" x1="0" x2="0" y1="1" y2="0"><stop stop-color="rgba(132, 20, 4, 1)" offset="0%"/><stop stop-color="rgba(132, 20, 4, 1)" offset="100%"/></linearGradient></defs><path style="transform:translate(0, 0px); opacity:1" fill="url(#sw-gradient-0)" d="M0,245L60,220.5C120,196,240,147,360,114.3C480,82,600,65,720,65.3C840,65,960,82,1080,147C1200,212,1320,327,1440,359.3C1560,392,1680,343,1800,285.8C1920,229,2040,163,2160,179.7C2280,196,2400,294,2520,285.8C2640,278,2760,163,2880,122.5C3000,82,3120,114,3240,114.3C3360,114,3480,82,3600,57.2C3720,33,3840,16,3960,57.2C4080,98,4200,196,4320,212.3C4440,229,4560,163,4680,187.8C4800,212,4920,327,5040,343C5160,359,5280,278,5400,269.5C5520,261,5640,327,5760,343C5880,359,6000,327,6120,310.3C6240,294,6360,294,6480,310.3C6600,327,6720,359,6840,326.7C6960,294,7080,196,7200,179.7C7320,163,7440,229,7560,277.7C7680,327,7800,359,7920,318.5C8040,278,8160,163,8280,106.2C8400,49,8520,49,8580,49L8640,49L8640,490L8580,490C8520,490,8400,490,8280,490C8160,490,8040,490,7920,490C7800,490,7680,490,7560,490C7440,490,7320,490,7200,490C7080,490,6960,490,6840,490C6720,490,6600,490,6480,490C6360,490,6240,490,6120,490C6000,490,5880,490,5760,490C5640,490,5520,490,5400,490C5280,490,5160,490,5040,490C4920,490,4800,490,4680,490C4560,490,4440,490,4320,490C4200,490,4080,490,3960,490C3840,490,3720,490,3600,490C3480,490,3360,490,3240,490C3120,490,3000,490,2880,490C2760,490,2640,490,2520,490C2400,490,2280,490,2160,490C2040,490,1920,490,1800,490C1680,490,1560,490,1440,490C1320,490,1200,490,1080,490C960,490,840,490,720,490C600,490,480,490,360,490C240,490,120,490,60,490L0,490Z"/><defs><linearGradient id="sw-gradient-1" x1="0" x2="0" y1="1" y2="0"><stop stop-color="rgba(132, 20, 4, 1)" offset="0%"/><stop stop-color="rgba(0, 0, 0, 1)" offset="100%"/></linearGradient></defs><path style="transform:translate(0, 50px); opacity:0.9" fill="url(#sw-gradient-1)" d="M0,343L60,294C120,245,240,147,360,98C480,49,600,49,720,89.8C840,131,960,212,1080,245C1200,278,1320,261,1440,228.7C1560,196,1680,147,1800,179.7C1920,212,2040,327,2160,375.7C2280,425,2400,408,2520,359.3C2640,310,2760,229,2880,196C3000,163,3120,180,3240,155.2C3360,131,3480,65,3600,65.3C3720,65,3840,131,3960,147C4080,163,4200,131,4320,147C4440,163,4560,229,4680,220.5C4800,212,4920,131,5040,130.7C5160,131,5280,212,5400,212.3C5520,212,5640,131,5760,155.2C5880,180,6000,310,6120,343C6240,376,6360,310,6480,253.2C6600,196,6720,147,6840,147C6960,147,7080,196,7200,245C7320,294,7440,343,7560,334.8C7680,327,7800,261,7920,212.3C8040,163,8160,131,8280,106.2C8400,82,8520,65,8580,57.2L8640,49L8640,490L8580,490C8520,490,8400,490,8280,490C8160,490,8040,490,7920,490C7800,490,7680,490,7560,490C7440,490,7320,490,7200,490C7080,490,6960,490,6840,490C6720,490,6600,490,6480,490C6360,490,6240,490,6120,490C6000,490,5880,490,5760,490C5640,490,5520,490,5400,490C5280,490,5160,490,5040,490C4920,490,4800,490,4680,490C4560,490,4440,490,4320,490C4200,490,4080,490,3960,490C3840,490,3720,490,3600,490C3480,490,3360,490,3240,490C3120,490,3000,490,2880,490C2760,490,2640,490,2520,490C2400,490,2280,490,2160,490C2040,490,1920,490,1800,490C1680,490,1560,490,1440,490C1320,490,1200,490,1080,490C960,490,840,490,720,490C600,490,480,490,360,490C240,490,120,490,60,490L0,490Z"/></svg>